<mxfile host="Electron" modified="2023-11-30T12:39:31.713Z" agent="Mozilla/5.0 (Windows NT 10.0; Win64; x64) AppleWebKit/537.36 (KHTML, like Gecko) draw.io/22.1.2 Chrome/114.0.5735.289 Electron/25.9.4 Safari/537.36" etag="aSWEMOLYhlF7Tf5L2GBm" version="22.1.2" type="device">
  <diagram name="Dataflow" id="twFDfBBDCctNn78zsZL4">
    <mxGraphModel dx="1195" dy="1797" grid="1" gridSize="10" guides="1" tooltips="1" connect="1" arrows="1" fold="1" page="1" pageScale="1" pageWidth="850" pageHeight="1100" math="0" shadow="0">
      <root>
        <mxCell id="0" />
        <mxCell id="1" parent="0" />
        <mxCell id="l9X7h50NV_1RRkOVu1JG-8" style="edgeStyle=orthogonalEdgeStyle;rounded=0;orthogonalLoop=1;jettySize=auto;html=1;exitX=1;exitY=0.5;exitDx=0;exitDy=0;endArrow=none;endFill=0;" parent="1" source="pmkD6WaBD-KvPrrnkrU6-1" target="l9X7h50NV_1RRkOVu1JG-6" edge="1">
          <mxGeometry relative="1" as="geometry" />
        </mxCell>
        <mxCell id="pmkD6WaBD-KvPrrnkrU6-1" value="Input resource" style="rounded=1;whiteSpace=wrap;html=1;shape=parallelogram;strokeWidth=1;perimeter=parallelogramPerimeter;arcSize=22;size=0.17307692307692307;" parent="1" vertex="1">
          <mxGeometry x="120" y="80" width="120" height="40" as="geometry" />
        </mxCell>
        <mxCell id="oQwh4gqLP9rMvErosv-V-8" style="rounded=0;orthogonalLoop=1;jettySize=auto;html=1;" edge="1" parent="1" source="pmkD6WaBD-KvPrrnkrU6-4" target="oQwh4gqLP9rMvErosv-V-1">
          <mxGeometry relative="1" as="geometry" />
        </mxCell>
        <mxCell id="pmkD6WaBD-KvPrrnkrU6-4" value="Contained metadata" style="shape=document;whiteSpace=wrap;html=1;boundedLbl=1;" parent="1" vertex="1">
          <mxGeometry x="320" y="10" width="120" height="60" as="geometry" />
        </mxCell>
        <mxCell id="oQwh4gqLP9rMvErosv-V-9" style="rounded=0;orthogonalLoop=1;jettySize=auto;html=1;edgeStyle=orthogonalEdgeStyle;" edge="1" parent="1" source="pmkD6WaBD-KvPrrnkrU6-5" target="oQwh4gqLP9rMvErosv-V-2">
          <mxGeometry relative="1" as="geometry">
            <Array as="points">
              <mxPoint x="450" y="100" />
              <mxPoint x="450" y="135" />
            </Array>
          </mxGeometry>
        </mxCell>
        <mxCell id="pmkD6WaBD-KvPrrnkrU6-5" value="Data content" style="shape=tape;whiteSpace=wrap;html=1;size=0.2857142857142857;" parent="1" vertex="1">
          <mxGeometry x="320" y="70" width="120" height="60" as="geometry" />
        </mxCell>
        <mxCell id="oQwh4gqLP9rMvErosv-V-10" style="rounded=0;orthogonalLoop=1;jettySize=auto;html=1;edgeStyle=orthogonalEdgeStyle;" edge="1" parent="1" source="pmkD6WaBD-KvPrrnkrU6-6" target="oQwh4gqLP9rMvErosv-V-2">
          <mxGeometry relative="1" as="geometry">
            <Array as="points">
              <mxPoint x="450" y="160" />
              <mxPoint x="450" y="135" />
            </Array>
          </mxGeometry>
        </mxCell>
        <mxCell id="pmkD6WaBD-KvPrrnkrU6-6" value="Context metadata" style="shape=document;whiteSpace=wrap;html=1;boundedLbl=1;rotation=0;horizontal=1;verticalAlign=middle;direction=west;" parent="1" vertex="1">
          <mxGeometry x="320" y="130" width="120" height="60" as="geometry" />
        </mxCell>
        <mxCell id="l9X7h50NV_1RRkOVu1JG-9" style="rounded=0;orthogonalLoop=1;jettySize=auto;html=1;entryX=0;entryY=0.5;entryDx=0;entryDy=0;endArrow=none;endFill=0;" parent="1" source="l9X7h50NV_1RRkOVu1JG-6" target="pmkD6WaBD-KvPrrnkrU6-4" edge="1">
          <mxGeometry relative="1" as="geometry">
            <mxPoint x="270" y="70" as="sourcePoint" />
          </mxGeometry>
        </mxCell>
        <mxCell id="l9X7h50NV_1RRkOVu1JG-10" style="edgeStyle=orthogonalEdgeStyle;rounded=0;orthogonalLoop=1;jettySize=auto;html=1;exitX=1;exitY=0.5;exitDx=0;exitDy=0;endArrow=none;endFill=0;" parent="1" source="l9X7h50NV_1RRkOVu1JG-6" target="pmkD6WaBD-KvPrrnkrU6-5" edge="1">
          <mxGeometry relative="1" as="geometry" />
        </mxCell>
        <mxCell id="l9X7h50NV_1RRkOVu1JG-11" style="rounded=0;orthogonalLoop=1;jettySize=auto;html=1;entryX=1;entryY=0.5;entryDx=0;entryDy=0;endArrow=none;endFill=0;" parent="1" source="l9X7h50NV_1RRkOVu1JG-6" target="pmkD6WaBD-KvPrrnkrU6-6" edge="1">
          <mxGeometry relative="1" as="geometry" />
        </mxCell>
        <mxCell id="l9X7h50NV_1RRkOVu1JG-6" value="" style="ellipse;whiteSpace=wrap;html=1;" parent="1" vertex="1">
          <mxGeometry x="280" y="95" width="10" height="10" as="geometry" />
        </mxCell>
        <mxCell id="oQwh4gqLP9rMvErosv-V-14" style="edgeStyle=orthogonalEdgeStyle;rounded=0;orthogonalLoop=1;jettySize=auto;html=1;" edge="1" parent="1" source="l9X7h50NV_1RRkOVu1JG-12" target="oQwh4gqLP9rMvErosv-V-1">
          <mxGeometry relative="1" as="geometry">
            <Array as="points">
              <mxPoint x="490" y="-120" />
              <mxPoint x="490" y="40" />
            </Array>
          </mxGeometry>
        </mxCell>
        <mxCell id="l9X7h50NV_1RRkOVu1JG-12" value="Knowledge base" style="rounded=1;whiteSpace=wrap;html=1;shape=parallelogram;strokeWidth=1;perimeter=parallelogramPerimeter;arcSize=22;size=0.17307692307692307;" parent="1" vertex="1">
          <mxGeometry x="120" y="-140" width="120" height="40" as="geometry" />
        </mxCell>
        <mxCell id="l9X7h50NV_1RRkOVu1JG-21" style="rounded=0;orthogonalLoop=1;jettySize=auto;html=1;" parent="1" source="l9X7h50NV_1RRkOVu1JG-13" target="pmkD6WaBD-KvPrrnkrU6-4" edge="1">
          <mxGeometry relative="1" as="geometry" />
        </mxCell>
        <mxCell id="l9X7h50NV_1RRkOVu1JG-13" value="Header" style="ellipse;whiteSpace=wrap;html=1;" parent="1" vertex="1">
          <mxGeometry x="280" y="-70" width="60" height="60" as="geometry" />
        </mxCell>
        <mxCell id="l9X7h50NV_1RRkOVu1JG-22" style="rounded=0;orthogonalLoop=1;jettySize=auto;html=1;" parent="1" source="l9X7h50NV_1RRkOVu1JG-14" target="pmkD6WaBD-KvPrrnkrU6-4" edge="1">
          <mxGeometry relative="1" as="geometry" />
        </mxCell>
        <mxCell id="l9X7h50NV_1RRkOVu1JG-14" value="Data definition" style="ellipse;whiteSpace=wrap;html=1;" parent="1" vertex="1">
          <mxGeometry x="350" y="-70" width="60" height="60" as="geometry" />
        </mxCell>
        <mxCell id="l9X7h50NV_1RRkOVu1JG-23" style="rounded=0;orthogonalLoop=1;jettySize=auto;html=1;" parent="1" source="l9X7h50NV_1RRkOVu1JG-15" target="pmkD6WaBD-KvPrrnkrU6-4" edge="1">
          <mxGeometry relative="1" as="geometry">
            <mxPoint x="370" y="20" as="targetPoint" />
          </mxGeometry>
        </mxCell>
        <mxCell id="l9X7h50NV_1RRkOVu1JG-15" value="OS metadata" style="ellipse;whiteSpace=wrap;html=1;" parent="1" vertex="1">
          <mxGeometry x="420" y="-70" width="60" height="60" as="geometry" />
        </mxCell>
        <mxCell id="oQwh4gqLP9rMvErosv-V-20" style="edgeStyle=orthogonalEdgeStyle;rounded=0;orthogonalLoop=1;jettySize=auto;html=1;exitX=1;exitY=0.5;exitDx=0;exitDy=0;" edge="1" parent="1" source="l9X7h50NV_1RRkOVu1JG-16" target="oQwh4gqLP9rMvErosv-V-18">
          <mxGeometry relative="1" as="geometry" />
        </mxCell>
        <mxCell id="l9X7h50NV_1RRkOVu1JG-16" value="Manual input" style="rounded=1;whiteSpace=wrap;html=1;shape=parallelogram;strokeWidth=1;perimeter=parallelogramPerimeter;arcSize=22;size=0.17307692307692307;" parent="1" vertex="1">
          <mxGeometry x="120" y="300" width="120" height="40" as="geometry" />
        </mxCell>
        <mxCell id="l9X7h50NV_1RRkOVu1JG-18" style="edgeStyle=orthogonalEdgeStyle;rounded=0;orthogonalLoop=1;jettySize=auto;html=1;exitX=1;exitY=0.3333333333333333;exitDx=0;exitDy=0;exitPerimeter=0;entryX=0;entryY=0.5;entryDx=0;entryDy=0;" parent="1" source="l9X7h50NV_1RRkOVu1JG-17" target="pmkD6WaBD-KvPrrnkrU6-1" edge="1">
          <mxGeometry relative="1" as="geometry">
            <Array as="points">
              <mxPoint x="110" y="100" />
              <mxPoint x="110" y="100" />
            </Array>
          </mxGeometry>
        </mxCell>
        <mxCell id="l9X7h50NV_1RRkOVu1JG-19" style="edgeStyle=orthogonalEdgeStyle;rounded=0;orthogonalLoop=1;jettySize=auto;html=1;exitX=1;exitY=0.3333333333333333;exitDx=0;exitDy=0;exitPerimeter=0;entryX=0;entryY=0.5;entryDx=0;entryDy=0;" parent="1" source="l9X7h50NV_1RRkOVu1JG-17" target="l9X7h50NV_1RRkOVu1JG-12" edge="1">
          <mxGeometry relative="1" as="geometry">
            <Array as="points">
              <mxPoint x="110" y="100" />
              <mxPoint x="110" y="-120" />
            </Array>
          </mxGeometry>
        </mxCell>
        <mxCell id="l9X7h50NV_1RRkOVu1JG-20" style="edgeStyle=orthogonalEdgeStyle;rounded=0;orthogonalLoop=1;jettySize=auto;html=1;exitX=1;exitY=0.3333333333333333;exitDx=0;exitDy=0;exitPerimeter=0;entryX=0;entryY=0.5;entryDx=0;entryDy=0;" parent="1" source="l9X7h50NV_1RRkOVu1JG-17" target="l9X7h50NV_1RRkOVu1JG-16" edge="1">
          <mxGeometry relative="1" as="geometry">
            <Array as="points">
              <mxPoint x="110" y="100" />
              <mxPoint x="110" y="320" />
            </Array>
          </mxGeometry>
        </mxCell>
        <mxCell id="l9X7h50NV_1RRkOVu1JG-17" value="User" style="shape=umlActor;verticalLabelPosition=bottom;verticalAlign=top;html=1;outlineConnect=0;" parent="1" vertex="1">
          <mxGeometry x="60" y="80" width="30" height="60" as="geometry" />
        </mxCell>
        <mxCell id="l9X7h50NV_1RRkOVu1JG-24" style="rounded=0;orthogonalLoop=1;jettySize=auto;html=1;" parent="1" source="l9X7h50NV_1RRkOVu1JG-25" target="pmkD6WaBD-KvPrrnkrU6-6" edge="1">
          <mxGeometry relative="1" as="geometry">
            <mxPoint x="371" y="315" as="targetPoint" />
          </mxGeometry>
        </mxCell>
        <mxCell id="l9X7h50NV_1RRkOVu1JG-25" value="Directory" style="ellipse;whiteSpace=wrap;html=1;" parent="1" vertex="1">
          <mxGeometry x="315" y="210" width="60" height="60" as="geometry" />
        </mxCell>
        <mxCell id="l9X7h50NV_1RRkOVu1JG-26" style="rounded=0;orthogonalLoop=1;jettySize=auto;html=1;" parent="1" source="l9X7h50NV_1RRkOVu1JG-27" target="pmkD6WaBD-KvPrrnkrU6-6" edge="1">
          <mxGeometry relative="1" as="geometry">
            <mxPoint x="390" y="315" as="targetPoint" />
          </mxGeometry>
        </mxCell>
        <mxCell id="l9X7h50NV_1RRkOVu1JG-27" value="Adjacent resources" style="ellipse;whiteSpace=wrap;html=1;" parent="1" vertex="1">
          <mxGeometry x="385" y="210" width="60" height="60" as="geometry" />
        </mxCell>
        <mxCell id="oQwh4gqLP9rMvErosv-V-16" style="edgeStyle=orthogonalEdgeStyle;rounded=0;orthogonalLoop=1;jettySize=auto;html=1;exitX=1;exitY=0.5;exitDx=0;exitDy=0;entryX=1;entryY=0.5;entryDx=0;entryDy=0;" edge="1" parent="1" source="oQwh4gqLP9rMvErosv-V-1" target="oQwh4gqLP9rMvErosv-V-2">
          <mxGeometry relative="1" as="geometry">
            <Array as="points">
              <mxPoint x="840" y="40" />
              <mxPoint x="840" y="135" />
            </Array>
          </mxGeometry>
        </mxCell>
        <mxCell id="oQwh4gqLP9rMvErosv-V-1" value="Metdata extractor" style="shape=process;whiteSpace=wrap;html=1;backgroundOutline=1;" vertex="1" parent="1">
          <mxGeometry x="640" y="10" width="120" height="60" as="geometry" />
        </mxCell>
        <mxCell id="oQwh4gqLP9rMvErosv-V-2" value="Metadata generator" style="shape=process;whiteSpace=wrap;html=1;backgroundOutline=1;" vertex="1" parent="1">
          <mxGeometry x="640" y="105" width="120" height="60" as="geometry" />
        </mxCell>
        <mxCell id="oQwh4gqLP9rMvErosv-V-13" value="processed by" style="text;html=1;strokeColor=none;fillColor=none;align=center;verticalAlign=middle;whiteSpace=wrap;rounded=0;" vertex="1" parent="1">
          <mxGeometry x="500" y="105" width="80" height="30" as="geometry" />
        </mxCell>
        <mxCell id="oQwh4gqLP9rMvErosv-V-15" value="aggregated by" style="text;html=1;align=center;verticalAlign=middle;resizable=0;points=[];autosize=1;strokeColor=none;fillColor=none;" vertex="1" parent="1">
          <mxGeometry x="490" y="10" width="100" height="30" as="geometry" />
        </mxCell>
        <mxCell id="oQwh4gqLP9rMvErosv-V-17" value="used as hints" style="text;html=1;align=center;verticalAlign=middle;resizable=0;points=[];autosize=1;strokeColor=none;fillColor=none;" vertex="1" parent="1">
          <mxGeometry x="760" y="10" width="90" height="30" as="geometry" />
        </mxCell>
        <mxCell id="oQwh4gqLP9rMvErosv-V-24" style="edgeStyle=orthogonalEdgeStyle;rounded=0;orthogonalLoop=1;jettySize=auto;html=1;exitX=0.5;exitY=1;exitDx=0;exitDy=0;exitPerimeter=0;entryX=1;entryY=0.5;entryDx=0;entryDy=0;" edge="1" parent="1" source="oQwh4gqLP9rMvErosv-V-18" target="oQwh4gqLP9rMvErosv-V-23">
          <mxGeometry relative="1" as="geometry">
            <Array as="points">
              <mxPoint x="700" y="380" />
            </Array>
          </mxGeometry>
        </mxCell>
        <mxCell id="oQwh4gqLP9rMvErosv-V-18" value="Editor GUI" style="strokeWidth=1;html=1;shape=mxgraph.flowchart.display;whiteSpace=wrap;" vertex="1" parent="1">
          <mxGeometry x="650" y="290" width="100" height="60" as="geometry" />
        </mxCell>
        <mxCell id="oQwh4gqLP9rMvErosv-V-19" style="edgeStyle=orthogonalEdgeStyle;rounded=0;orthogonalLoop=1;jettySize=auto;html=1;exitX=0.5;exitY=1;exitDx=0;exitDy=0;entryX=0.5;entryY=0;entryDx=0;entryDy=0;entryPerimeter=0;" edge="1" parent="1" source="oQwh4gqLP9rMvErosv-V-2" target="oQwh4gqLP9rMvErosv-V-18">
          <mxGeometry relative="1" as="geometry" />
        </mxCell>
        <mxCell id="oQwh4gqLP9rMvErosv-V-21" value="shown to user" style="text;html=1;align=center;verticalAlign=middle;resizable=0;points=[];autosize=1;strokeColor=none;fillColor=none;" vertex="1" parent="1">
          <mxGeometry x="700" y="218" width="100" height="30" as="geometry" />
        </mxCell>
        <mxCell id="oQwh4gqLP9rMvErosv-V-22" value="edit &amp;amp; validate" style="text;html=1;align=center;verticalAlign=middle;resizable=0;points=[];autosize=1;strokeColor=none;fillColor=none;" vertex="1" parent="1">
          <mxGeometry x="400" y="290" width="100" height="30" as="geometry" />
        </mxCell>
        <mxCell id="oQwh4gqLP9rMvErosv-V-23" value="Metadata file" style="rounded=1;whiteSpace=wrap;html=1;shape=parallelogram;strokeWidth=1;perimeter=parallelogramPerimeter;arcSize=22;size=0.17307692307692307;" vertex="1" parent="1">
          <mxGeometry x="120" y="360" width="120" height="40" as="geometry" />
        </mxCell>
        <mxCell id="oQwh4gqLP9rMvErosv-V-25" value="generates" style="text;html=1;align=center;verticalAlign=middle;resizable=0;points=[];autosize=1;strokeColor=none;fillColor=none;" vertex="1" parent="1">
          <mxGeometry x="410" y="350" width="80" height="30" as="geometry" />
        </mxCell>
      </root>
    </mxGraphModel>
  </diagram>
</mxfile>
